<?xml version="1.0" standalone="no"?>
<!DOCTYPE svg PUBLIC "-//W3C//DTD SVG 20010904//EN"
 "http://www.w3.org/TR/2001/REC-SVG-20010904/DTD/svg10.dtd">
<svg version="1.0" xmlns="http://www.w3.org/2000/svg"
 width="874.000000pt" height="874.000000pt" viewBox="0 0 874.000000 874.000000"
 preserveAspectRatio="xMidYMid meet">
<metadata>
Created by potrace 1.14, written by Peter Selinger 2001-2017
</metadata>
<g transform="translate(0.000000,874.000000) scale(0.100000,-0.100000)"
fill="#000000" stroke="none">
<path d="M0 4370 l0 -4370 1594 0 c1258 0 1596 3 1600 13 5 9 7 9 12 0 8 -18
705 -19 702 -2 -2 6 3 14 10 16 6 3 12 -2 12 -11 0 -12 15 -15 84 -15 93 0
113 10 102 54 -5 19 -2 25 9 25 20 0 31 -28 16 -43 -30 -30 -12 -37 89 -37 86
0 100 2 100 17 0 15 1 15 18 0 10 -10 35 -17 54 -17 28 0 37 5 41 21 6 22 27
17 27 -6 0 -22 368 -17 374 5 3 12 4 11 5 -2 1 -17 101 -18 1946 -18 l1945 0
0 558 0 557 -39 1 c-28 1 -38 -2 -35 -11 10 -25 -18 -27 -42 -3 -20 19 -26 38
-30 93 l-6 70 21 -29 c24 -36 77 -65 103 -58 14 3 19 14 19 46 0 22 3 73 5
112 5 69 4 73 -25 105 -72 79 -72 79 -36 79 14 0 29 -8 35 -20 24 -45 30 -16
30 146 l0 165 -30 -18 c-16 -9 -42 -28 -56 -40 -31 -26 -56 -30 -48 -8 4 8 12
15 20 15 15 0 42 19 86 63 l28 28 -1 152 c-1 84 -4 142 -6 130 -2 -13 -11 -23
-19 -23 -17 0 -17 1 -4 35 5 14 14 23 20 20 6 -4 10 41 10 127 l0 133 -22 -34
c-23 -36 -26 -49 -27 -128 -1 -60 -31 -102 -93 -127 -47 -20 -48 -20 -48 4 0
11 5 20 10 20 6 0 10 9 10 20 0 11 -4 20 -9 20 -5 0 -11 9 -14 20 -3 13 0 20
9 20 21 0 17 18 -5 25 -13 4 -20 17 -23 46 -2 21 0 43 5 48 14 14 -1 31 -26
32 -12 0 -16 3 -9 6 17 7 15 38 -3 53 -9 7 -14 19 -11 26 3 8 0 11 -10 7 -13
-5 -14 1 -9 33 17 101 31 151 50 174 40 50 99 100 117 100 21 0 23 -11 6 -29
-11 -10 -9 -12 7 -9 12 2 21 13 23 26 3 21 32 32 32 12 0 -5 9 -10 20 -10 20
0 20 7 20 2980 l0 2980 -1635 0 c-1083 0 -1635 -3 -1635 -10 0 -5 5 -10 10
-10 10 0 50 -36 50 -45 0 -11 -39 -4 -42 7 -3 7 -12 9 -24 4 -19 -7 -19 -8 0
-21 16 -12 17 -17 6 -30 -7 -8 -16 -12 -21 -10 -4 3 -41 -24 -81 -60 -40 -36
-74 -61 -76 -55 -2 6 0 16 5 23 14 17 15 74 3 97 -8 14 -6 29 5 56 8 20 15 40
15 45 0 5 -65 9 -145 9 l-145 0 -40 -40 c-43 -43 -53 -88 -25 -116 13 -14 16
-13 21 3 12 38 22 48 50 51 23 2 31 -3 41 -24 11 -23 10 -27 -7 -31 -11 -3
-20 -12 -20 -19 0 -8 -5 -14 -11 -14 -6 0 -24 -9 -40 -21 -25 -17 -29 -18 -29
-4 0 8 10 20 23 25 16 6 17 9 5 9 -9 1 -26 -11 -37 -25 l-21 -27 0 26 c0 16
-8 30 -19 37 -27 14 -34 13 -27 -5 3 -9 -1 -18 -8 -21 -13 -5 -31 -49 -28 -66
1 -5 -4 -8 -11 -8 -8 0 -30 -18 -51 -40 -20 -22 -32 -40 -26 -40 18 0 10 -15
-15 -27 -14 -6 -25 -7 -25 -2 0 5 -5 9 -11 9 -6 0 -9 -6 -6 -13 6 -16 -48 -51
-63 -42 -5 3 -7 0 -5 -7 4 -9 -7 -18 -30 -26 -43 -16 -49 -16 -54 -1 -2 6 1 9
6 6 6 -4 19 1 29 9 18 15 18 15 -3 11 -13 -3 -23 -4 -23 -3 0 1 9 26 20 56 11
30 20 64 20 75 0 12 5 26 11 32 15 15 2 51 -29 80 -14 12 -19 23 -13 23 7 0 9
5 6 10 -3 6 -17 10 -30 10 -14 0 -42 16 -67 39 -33 31 -39 42 -31 53 15 18 5
34 -30 47 -20 8 -699 11 -2228 11 l-2199 0 0 -4370z m5126 4288 c4 -6 2 -14
-4 -16 -7 -2 -12 -11 -12 -19 0 -13 -2 -13 -16 -2 -10 8 -12 15 -5 17 6 2 11
10 11 18 0 17 16 18 26 2z m541 -81 c4 -8 16 -16 26 -20 9 -3 17 -11 17 -17 0
-14 -36 -3 -72 21 -14 11 -31 19 -37 19 -12 0 -15 23 -5 33 8 8 60 -19 71 -36z
m-83 -22 c-4 -8 -1 -15 5 -15 6 0 11 5 11 10 0 6 7 10 16 10 13 0 14 -3 5 -14
-8 -10 -9 -16 -2 -21 15 -9 -10 -45 -31 -45 -9 0 -18 6 -21 13 -4 10 -7 10
-18 0 -11 -11 -11 -13 2 -13 12 -1 -45 -30 -58 -30 -6 0 40 64 49 68 4 2 8 9
8 16 0 13 20 36 32 36 4 0 5 -7 2 -15z m176 -82 c-12 -8 -24 -12 -27 -9 -9 8
30 36 40 29 5 -3 -1 -12 -13 -20z m30 -12 c0 -5 -7 -12 -16 -15 -24 -9 -28 -7
-14 9 14 17 30 20 30 6z m200 -72 c0 -5 -7 -9 -15 -9 -15 0 -20 12 -9 23 8 8
24 -1 24 -14z m-2124 -114 c9 -14 26 -25 38 -25 11 0 37 -15 57 -33 19 -17 48
-39 64 -47 33 -17 93 -69 82 -71 -4 -1 -11 -2 -16 -3 -5 0 -13 -4 -17 -8 -13
-14 -34 -8 -35 10 -1 15 -2 15 -6 -1 -3 -11 -11 -16 -18 -13 -9 3 -12 0 -8
-10 3 -9 -1 -14 -13 -14 -12 0 -30 19 -49 51 -16 28 -40 63 -51 77 -21 27 -64
98 -64 107 0 14 22 2 36 -20z m-1939 -907 c-1 -40 -3 -10 -3 67 0 77 1 110 3
73 2 -37 2 -100 0 -140z m28 -166 c-10 -27 -25 1 -25 46 l1 47 14 -40 c8 -22
13 -46 10 -53z m9 -73 c-3 -5 0 -9 6 -9 6 0 8 -5 4 -11 -10 -17 -24 10 -23 46
0 29 1 29 10 7 5 -13 7 -28 3 -33z m1825 -380 c17 -6 31 -15 31 -20 0 -5 4 -9
9 -9 8 0 101 -89 101 -97 0 -6 62 -96 71 -103 3 -3 14 -18 23 -35 9 -16 32
-57 51 -90 19 -33 44 -78 55 -100 11 -22 25 -47 30 -55 8 -12 29 -59 35 -80 1
-3 9 -21 17 -40 35 -77 50 -112 46 -114 -1 -1 -28 -14 -58 -28 -328 -154 -403
-199 -530 -317 -83 -75 -177 -218 -165 -249 5 -14 10 -12 34 16 16 17 31 32
34 32 3 0 38 32 78 70 l72 70 -7 -37 c-19 -112 -19 -123 -2 -123 34 0 136 123
136 164 0 39 110 103 270 156 138 46 238 53 224 15 -3 -8 -10 -13 -14 -10 -20
12 -269 -71 -325 -109 -59 -40 -135 -127 -162 -186 -41 -91 -43 -140 -3 -74
34 55 37 59 110 135 36 38 69 69 74 69 5 0 17 6 25 13 9 8 32 20 51 27 45 17
90 36 138 57 20 9 62 17 92 18 54 0 55 -1 75 -40 29 -56 55 -145 55 -188 0
-55 -27 -69 -194 -102 -80 -16 -144 -31 -142 -32 6 -6 239 26 294 41 61 15 63
14 82 -63 15 -62 46 -137 60 -146 19 -12 9 64 -34 270 -17 80 -46 242 -46 258
0 21 22 22 60 2 28 -15 30 -19 30 -75 0 -33 3 -60 8 -60 4 0 17 24 30 52 12
28 24 49 27 46 9 -9 87 -234 121 -348 19 -63 41 -137 49 -165 28 -93 29 -137
6 -185 -12 -24 -21 -49 -21 -55 0 -9 -67 -14 -232 -19 -128 -3 -395 -11 -593
-17 -333 -10 -465 -8 -682 7 l-83 6 0 77 c0 126 -33 203 -112 269 -25 20 -34
32 -24 32 36 0 -2 72 -51 95 -18 9 -33 21 -34 28 0 9 -2 9 -6 0 -2 -7 -21 -13
-41 -13 -24 0 -32 3 -24 9 11 7 11 9 -2 14 -10 4 -16 1 -16 -9 0 -12 -6 -15
-24 -10 -13 3 -78 1 -143 -4 -109 -9 -175 -24 -226 -52 -20 -10 -20 -8 -13
103 4 63 9 125 11 139 14 100 77 451 84 475 5 17 12 50 16 75 9 67 47 224 56
234 23 26 180 51 299 48 175 -5 178 -4 233 32 29 19 66 40 82 47 17 7 42 21
58 32 31 21 30 22 17 -58 -36 -215 -54 -701 -41 -1110 4 -140 7 -155 25 -155
7 0 20 48 33 128 12 70 36 192 53 272 17 80 35 168 40 195 26 143 150 597 201
735 17 47 39 111 48 144 10 32 26 65 36 72 22 17 15 16 54 3z m-2509 -313 c0
-3 -4 -8 -10 -11 -5 -3 -10 -1 -10 4 0 6 5 11 10 11 6 0 10 -2 10 -4z m3172
-353 c8 -10 7 -13 -3 -13 -16 0 -39 45 -39 74 1 15 5 12 16 -13 8 -19 19 -41
26 -48z m-4312 46 c0 -6 -4 -7 -10 -4 -5 3 -10 11 -10 16 0 6 5 7 10 4 6 -3
10 -11 10 -16z m1067 -31 c-3 -7 -5 -2 -5 12 0 14 2 19 5 13 2 -7 2 -19 0 -25z
m-987 -39 c16 -30 8 -31 -13 -3 -10 13 -13 24 -8 24 6 0 15 -9 21 -21z m4266
-44 c-3 -8 -2 -15 2 -15 5 0 14 -17 21 -37 8 -21 17 -40 20 -43 4 -3 17 -27
28 -55 l22 -50 -42 -11 c-76 -19 -93 4 -19 26 27 8 40 16 30 18 -10 2 -18 8
-18 13 0 5 -15 9 -34 9 -37 0 -38 3 -51 92 -7 44 -5 49 16 57 32 13 32 13 25
-4z m-4212 -44 c3 -5 -1 -11 -9 -15 -9 -3 -15 0 -15 9 0 16 16 20 24 6z m-184
-11 c0 -5 -2 -10 -4 -10 -3 0 -8 5 -11 10 -3 6 -1 10 4 10 6 0 11 -4 11 -10z
m4223 -91 c6 -25 5 -26 -106 -54 -135 -34 -239 -69 -289 -98 -21 -11 -40 -18
-44 -15 -3 4 5 12 18 19 12 7 35 23 49 36 14 14 43 35 65 48 121 72 174 100
223 120 l56 21 11 -25 c6 -14 14 -38 17 -52z m3114 75 c-3 -3 -12 -4 -19 -1
-8 3 -5 6 6 6 11 1 17 -2 13 -5z m-7128 -56 c0 -18 -4 -53 -8 -78 -7 -43 -7
-44 -14 -15 -12 54 -7 125 9 125 9 0 14 -11 13 -32z m125 -153 c4 -16 13 -25
26 -25 34 0 85 -33 85 -55 0 -11 6 -19 13 -17 15 3 55 -35 65 -61 4 -10 17
-17 32 -17 29 0 85 -49 85 -75 0 -12 -5 -15 -17 -10 -10 4 -34 12 -53 17 -19
5 -39 14 -44 19 -6 5 -17 2 -28 -7 -16 -16 -18 -15 -28 10 -5 15 -10 33 -10
41 0 8 -4 17 -10 20 -17 10 -11 23 13 28 16 3 10 6 -20 12 -44 8 -56 28 -31
53 9 9 9 12 0 12 -7 0 -12 -4 -12 -10 0 -10 -51 -7 -81 5 -17 6 -39 46 -39 70
0 9 10 15 24 15 17 0 26 -7 30 -25z m5611 14 c43 -11 135 -68 135 -83 0 -5 11
-24 25 -42 129 -169 152 -613 45 -849 -10 -22 -38 -91 -63 -153 -25 -62 -57
-133 -71 -157 -27 -46 -73 -85 -100 -85 -9 0 -16 -4 -16 -10 0 -16 -70 -23
-111 -11 l-39 12 0 112 c0 62 3 135 6 164 l7 52 31 -16 c17 -9 46 -29 64 -44
56 -49 97 -35 109 36 5 29 3 37 -8 33 -7 -2 -17 -18 -21 -36 -5 -17 -12 -33
-17 -36 -10 -7 -78 43 -86 63 -6 15 37 86 90 146 76 85 101 181 70 262 -26 68
-158 195 -185 178 -7 -4 -7 -12 0 -26 6 -11 15 -17 20 -14 14 9 121 -119 136
-161 17 -51 9 -109 -24 -159 -15 -22 -26 -43 -25 -46 1 -4 -8 -5 -20 -2 -18 4
-19 3 -7 -6 13 -10 8 -15 -12 -12 -4 0 -4 -7 -1 -16 5 -12 2 -15 -10 -10 -12
5 -17 1 -17 -13 0 -11 -4 -20 -8 -20 -5 0 -17 -17 -28 -37 -10 -21 -20 -40
-21 -42 -2 -2 -9 1 -17 8 -11 9 -12 21 -5 52 5 23 8 193 6 378 -3 212 0 347 6
366 14 41 48 85 60 78 6 -3 7 -2 4 4 -3 5 14 22 38 38 48 30 60 51 23 39 -39
-11 -72 -31 -93 -54 -42 -47 -50 -43 -51 21 l0 59 50 25 c56 28 73 30 131 14z
m-5735 -13 c0 -3 -4 -8 -10 -11 -5 -3 -10 -1 -10 4 0 6 5 11 10 11 6 0 10 -2
10 -4z m4169 -151 l0 -20 -9 20 c-5 11 -9 27 -9 35 -1 13 0 13 9 0 5 -8 9 -24
9 -35z m3221 15 c0 -5 -4 -10 -9 -10 -6 0 -13 5 -16 10 -3 6 1 10 9 10 9 0 16
-4 16 -10z m-7384 -25 c1 -14 -2 -22 -7 -19 -11 6 -12 44 -1 44 4 0 8 -11 8
-25z m7454 -5 c12 -8 11 -10 -7 -10 -12 0 -25 5 -28 10 -8 13 15 13 35 0z m64
-45 c3 -8 1 -15 -4 -15 -6 0 -10 7 -10 15 0 8 2 15 4 15 2 0 6 -7 10 -15z
m-6989 -73 c28 -10 52 -19 55 -22 3 -3 22 -13 43 -22 39 -19 45 -33 25 -61
-12 -15 -18 -14 -78 15 -73 36 -82 44 -74 73 3 13 2 16 -3 8 -11 -16 -63 5
-63 25 0 14 5 13 95 -16z m-238 -59 c2 -6 -3 -13 -12 -16 -10 -5 -15 0 -15 14
0 21 21 22 27 2z m57 -21 c-21 -5 -28 4 -20 24 6 16 8 15 21 -2 12 -16 12 -19
-1 -22z m7197 -35 c-10 -9 -11 -8 -5 6 3 10 9 15 12 12 3 -3 0 -11 -7 -18z
m-7281 -27 c0 -5 -2 -10 -4 -10 -3 0 -8 5 -11 10 -3 6 -1 10 4 10 6 0 11 -4
11 -10z m2398 -11 c12 -1 22 -5 22 -10 0 -9 -7 -11 -115 -29 -128 -21 -266
-73 -247 -92 8 -8 26 -4 65 11 138 56 248 65 323 25 77 -41 117 -84 43 -47
-20 10 -66 19 -114 21 -89 5 -145 -10 -278 -72 -113 -53 -105 -57 -145 67 -19
59 -33 110 -30 113 18 17 271 24 476 13z m-1795 -19 c14 -11 31 -20 39 -20 7
0 24 -11 36 -25 19 -19 22 -31 17 -55 -4 -17 -13 -34 -21 -37 -8 -3 -45 16
-84 42 l-69 47 16 34 c19 39 31 42 66 14z m-563 0 c18 -12 2 -12 -25 0 -13 6
-15 9 -5 9 8 0 22 -4 30 -9z m73 -45 c23 -13 62 -42 87 -65 24 -22 49 -40 55
-40 10 0 65 -53 65 -63 0 -2 -18 1 -41 7 -30 8 -39 15 -36 27 3 12 -1 15 -16
11 -14 -3 -18 -1 -13 6 4 7 2 12 -4 12 -18 0 -70 43 -70 58 0 11 -3 12 -13 4
-10 -8 -19 -3 -40 23 -42 53 -37 57 26 20z m227 -74 c0 -17 -15 -19 -28 -5
-11 12 -9 14 8 14 11 0 20 -4 20 -9z m495 -37 c14 -9 25 -24 25 -33 0 -10 14
-23 34 -31 27 -10 36 -20 41 -47 7 -41 -1 -73 -20 -73 -18 0 -135 118 -135
136 0 14 21 64 27 64 2 0 15 -7 28 -16z m1740 2 c8 -7 12 -16 8 -19 -6 -7 -43
15 -43 25 0 13 20 9 35 -6z m-2055 -24 c69 -3 145 -17 145 -27 0 -17 -104 -23
-127 -7 -11 8 -33 15 -49 16 -16 1 -29 5 -29 9 0 4 0 12 0 18 0 8 4 8 13 2 6
-5 28 -10 47 -11z m1967 -5 c47 -18 83 -53 83 -82 0 -20 -9 -29 -37 -42 -21
-10 -45 -23 -53 -30 -31 -24 -215 -113 -236 -113 -12 0 -27 7 -34 15 -7 8 -19
15 -26 15 -8 0 -14 5 -14 12 0 6 -2 9 -5 6 -3 -3 2 -22 12 -43 16 -34 20 -37
53 -32 20 2 67 20 105 39 39 19 97 45 130 58 33 13 75 32 94 42 18 11 36 17
38 14 13 -12 -20 -73 -50 -92 -62 -40 -192 -112 -217 -119 -14 -5 -41 -18 -60
-30 -36 -22 -99 -50 -113 -50 -4 0 -11 -5 -15 -12 -4 -6 -19 -16 -33 -22 l-26
-9 -16 112 c-9 61 -27 147 -41 191 -25 78 -32 115 -21 115 13 0 68 -47 76 -65
8 -16 9 -15 5 9 -5 40 36 83 104 106 64 22 245 26 297 7z m-2009 -68 c2 -5 18
-9 35 -9 18 0 41 -7 51 -15 11 -8 30 -15 42 -15 13 0 26 -4 29 -10 9 -14 -4
-13 -103 11 -117 28 -112 26 -106 44 7 16 46 11 52 -6z m602 -49 c0 -11 -4
-20 -10 -20 -5 0 -10 9 -10 20 0 11 5 20 10 20 6 0 10 -9 10 -20z m-325 -20
c19 -8 19 -9 -2 -9 -12 -1 -25 4 -28 9 -7 12 2 12 30 0z m286 -53 c-15 -40
-30 -33 -17 8 6 19 14 31 19 26 4 -4 3 -20 -2 -34z m4321 -769 c-2 -17 3 -28
15 -32 15 -6 15 -8 3 -17 -13 -8 -13 -10 0 -19 8 -6 25 -9 38 -7 21 4 22 1 22
-70 0 -41 -7 -98 -16 -126 -34 -112 -66 -213 -74 -232 -45 -109 -147 -842
-121 -868 11 -11 13 -8 57 113 32 85 52 122 64 115 5 -3 6 4 3 14 -3 11 3 28
14 40 10 11 31 50 47 88 17 37 32 70 35 73 3 3 13 19 21 35 8 17 22 40 30 51
15 21 16 19 17 -40 3 -183 40 -548 68 -656 7 -30 21 -95 30 -145 20 -107 48
-192 101 -300 51 -104 50 -103 30 -82 -28 28 -56 39 -81 33 -29 -7 -38 -33
-30 -80 7 -37 27 -60 62 -70 18 -6 24 -2 29 18 3 14 4 33 0 41 -3 8 -1 15 3
15 5 0 11 -7 15 -15 3 -8 14 -14 25 -12 14 1 36 -21 79 -81 60 -82 60 -84 41
-103 -10 -10 -19 -30 -19 -43 0 -30 31 -86 48 -86 6 0 12 -4 12 -10 0 -14 -36
-31 -53 -24 -9 3 -16 -3 -20 -17 -5 -18 -9 -20 -21 -10 -12 10 -15 8 -18 -10
-6 -42 -23 -30 -20 13 4 59 -37 125 -79 125 -25 0 -30 -5 -35 -36 -4 -20 -7
-38 -7 -41 0 -3 -7 -11 -16 -17 -14 -11 -11 -17 25 -52 22 -21 41 -45 41 -53
0 -9 -23 -30 -51 -49 -54 -36 -167 -117 -201 -144 -11 -9 -22 -15 -25 -14 -3
1 -19 -11 -36 -27 -52 -48 -64 -55 -76 -48 -7 5 -8 3 -3 -6 4 -7 3 -15 -3 -19
-6 -3 -36 -29 -67 -56 -32 -28 -69 -53 -84 -57 -14 -4 -51 -14 -81 -23 -30 -9
-93 -26 -140 -37 -47 -11 -94 -24 -105 -28 -40 -17 -131 -39 -190 -45 -33 -3
-98 -10 -145 -15 -47 -5 -117 -12 -157 -14 l-72 -5 12 27 c7 15 19 41 28 57 8
17 21 50 28 75 21 75 42 144 51 165 9 20 50 137 50 142 0 2 -6 3 -13 3 -7 0
-21 -17 -32 -37 -11 -21 -36 -64 -57 -95 -21 -31 -38 -62 -38 -67 0 -6 -3 -11
-8 -11 -4 0 -16 -17 -27 -37 -24 -46 -123 -190 -136 -198 -5 -4 -9 -14 -9 -25
0 -30 -57 -31 -639 -2 l-144 7 -30 37 c-53 66 -36 165 46 273 4 6 17 22 28 38
11 15 24 25 29 22 5 -3 10 0 12 6 2 6 22 12 43 13 39 1 40 1 58 -54 10 -30 19
-85 20 -123 2 -61 4 -67 22 -65 32 5 47 62 52 200 6 125 -9 402 -27 508 -8 45
-31 212 -46 330 -5 36 -30 174 -47 252 -7 37 -12 70 -9 73 3 3 30 5 61 5 38 0
66 6 89 20 18 11 39 20 47 20 8 0 18 6 22 13 4 6 35 32 68 57 33 24 65 49 71
55 6 5 22 17 34 25 12 8 28 21 36 28 7 6 15 12 19 12 3 0 16 11 29 25 33 36
44 31 40 -17 -6 -72 -14 -208 -20 -313 -3 -55 -9 -113 -15 -129 -5 -16 -9 -57
-9 -92 0 -60 12 -86 31 -67 8 8 47 109 100 261 10 29 29 79 42 110 54 126 77
188 77 205 0 9 4 17 8 17 5 0 15 19 22 43 12 37 29 79 60 152 4 11 16 41 27
68 16 42 63 111 63 93 0 -4 14 3 31 15 29 20 31 21 25 3 -3 -10 -8 -36 -10
-57 -3 -22 -15 -82 -26 -135 -22 -100 -21 -126 6 -120 16 3 33 41 96 223 17
50 35 92 39 95 5 3 11 25 15 48 8 52 42 100 56 80 6 -9 7 -6 3 10 -3 12 -3 22
2 22 4 0 39 25 77 55 37 30 72 52 77 49 5 -3 9 1 9 8 0 7 34 35 75 63 41 27
75 54 75 59 0 6 3 6 9 0 5 -5 5 -30 0 -59 -4 -27 -13 -79 -18 -115 -34 -226
-81 -467 -142 -730 -28 -120 -33 -160 -20 -160 6 0 11 11 11 25 0 14 3 25 8
25 7 0 35 67 63 153 7 20 17 37 21 37 4 0 8 7 8 16 0 9 9 44 20 78 11 33 38
122 60 196 23 74 45 145 51 158 5 13 9 36 9 52 0 17 5 30 10 30 6 0 10 8 11
18 0 9 8 41 17 70 17 49 19 51 34 35 16 -15 18 -15 27 8 9 21 34 172 47 294 3
22 9 63 15 90 5 28 14 86 19 130 9 73 22 134 53 252 8 32 19 46 42 58 39 19
51 14 47 -17z m1248 -333 c0 -54 -16 -60 -22 -7 -4 30 4 51 20 52 1 0 2 -20 2
-45z m-44 -165 c10 -22 22 -40 25 -40 4 0 10 -11 13 -25 8 -32 44 -53 52 -30
4 8 2 28 -4 43 -6 15 -15 42 -21 60 l-11 34 63 -7 c65 -8 137 -31 137 -45 0
-5 6 -15 13 -22 7 -7 25 -30 41 -50 16 -21 37 -38 47 -38 17 0 18 5 13 43 -7
41 -6 41 12 25 10 -9 48 -32 84 -51 130 -68 310 -194 310 -217 0 -4 24 -32 54
-61 30 -29 52 -57 49 -61 -2 -5 1 -7 9 -6 17 4 23 -43 6 -53 -15 -9 -18 -29
-7 -44 7 -9 14 -52 18 -99 1 -4 12 -6 26 -4 23 5 25 2 25 -28 0 -18 6 -37 13
-41 17 -10 28 -51 16 -59 -15 -9 -10 -22 11 -29 11 -3 20 -15 20 -25 0 -25 16
-34 24 -14 8 21 -3 56 -22 70 -12 9 -13 17 -4 42 9 27 8 32 -9 37 -12 4 -19
15 -19 31 0 17 -8 27 -24 34 -32 12 -37 22 -42 86 -3 43 -1 54 11 54 8 0 15
-6 15 -14 0 -8 4 -16 9 -18 8 -3 76 -101 96 -139 5 -11 13 -19 18 -19 4 0 24
-34 44 -76 20 -43 44 -85 55 -96 10 -10 16 -23 13 -28 -13 -21 7 -78 30 -88
16 -7 28 -25 35 -53 6 -23 15 -49 20 -58 10 -18 59 -182 67 -221 5 -26 14 -51
36 -97 17 -36 16 -282 -2 -353 -33 -134 -83 -260 -103 -260 -4 0 -8 -7 -8 -15
0 -8 -9 -23 -20 -32 -11 -10 -20 -22 -20 -28 0 -5 -17 -44 -38 -85 -46 -89
-64 -155 -62 -224 3 -109 1 -123 -20 -129 -23 -6 -25 2 -8 38 8 19 9 31 1 43
-6 11 -7 38 -3 72 6 41 4 59 -6 71 -8 8 -14 21 -14 27 0 26 -25 21 -77 -15
-31 -21 -67 -46 -82 -56 -19 -13 -38 -17 -70 -14 -24 3 -38 1 -32 -3 9 -5 8
-9 -5 -14 -10 -4 -20 -3 -23 2 -3 5 -19 13 -35 18 -29 10 -67 64 -79 116 -4
15 -19 35 -32 45 -68 48 -96 73 -84 74 8 0 -3 7 -23 15 -34 15 -39 14 -53 0
-21 -20 -75 -22 -75 -2 0 8 8 17 18 19 11 3 6 7 -16 12 -36 8 -80 59 -112 128
-9 21 -24 43 -33 50 -19 15 -61 265 -52 307 6 27 4 29 -30 36 -19 3 -40 14
-45 24 -6 10 -19 22 -30 25 -23 7 -27 25 -5 25 8 0 15 5 15 11 0 7 -12 9 -35
5 -20 -4 -35 -3 -35 3 0 5 4 11 9 13 6 2 11 15 13 30 2 15 7 30 11 34 4 4 6
21 6 38 -1 17 -3 23 -6 13 -5 -18 -52 -47 -78 -47 -16 0 -21 25 -5 35 5 3 9
34 9 69 -1 51 5 75 30 125 17 33 36 61 41 61 6 0 10 6 10 13 0 21 40 53 109
86 36 17 68 31 73 31 4 0 14 -16 22 -35 12 -27 21 -35 40 -35 16 0 26 6 26 15
0 8 -9 15 -20 15 -11 0 -20 3 -21 8 0 4 -2 20 -4 35 -3 19 6 44 25 74 17 26
33 63 36 82 4 20 13 45 20 56 20 28 18 139 -2 156 -10 8 -13 21 -9 37 8 32
-12 90 -34 97 -13 4 -16 13 -13 39 4 38 -13 71 -70 128 -21 21 -38 42 -38 48
0 9 -23 33 -77 80 -28 24 -63 40 -89 40 -13 0 -24 1 -24 3 0 1 -14 35 -30 76
-33 82 -33 81 -22 81 5 0 17 -18 28 -40z m-62 -89 c-6 -7 -44 40 -43 54 0 6
11 -3 24 -20 13 -16 22 -32 19 -34z m53 -78 c36 -43 33 -47 -23 -35 -32 7 -39
12 -37 30 2 12 -2 22 -7 22 -6 0 -10 5 -10 10 0 24 46 8 77 -27z m53 7 c0 -5
-7 -10 -16 -10 -8 0 -12 5 -9 10 3 6 10 10 16 10 5 0 9 -4 9 -10z m114 -93 c8
-13 8 -19 -1 -25 -7 -4 -10 -17 -6 -30 6 -23 18 -29 28 -12 11 17 22 3 28 -36
7 -41 42 -77 68 -69 9 3 20 1 24 -5 3 -5 1 -10 -4 -10 -6 0 -11 -4 -11 -10 0
-5 6 -10 13 -10 8 0 19 -19 26 -42 7 -24 17 -51 23 -61 5 -11 6 -23 0 -30 -5
-7 -12 -36 -15 -64 -7 -58 -32 -102 -59 -103 -20 0 -32 -32 -23 -60 4 -11 2
-20 -4 -20 -6 0 -12 15 -12 33 -1 21 -3 25 -6 12 -3 -11 -10 -26 -15 -32 -8
-9 -6 -13 5 -13 10 0 16 -13 19 -40 3 -33 0 -40 -14 -40 -11 0 -20 10 -24 25
-6 25 -7 25 -25 9 -11 -9 -19 -22 -19 -28 0 -6 -23 -22 -50 -35 -33 -16 -49
-29 -46 -38 3 -7 -1 -13 -9 -13 -8 0 -15 -9 -15 -20 0 -10 -9 -24 -21 -30 -12
-7 -18 -18 -15 -26 3 -8 0 -13 -7 -11 -7 1 -13 -13 -15 -35 -3 -40 -20 -49
-42 -23 -7 8 -19 15 -26 15 -8 0 -14 7 -14 15 0 11 7 14 24 9 21 -5 24 0 36
42 7 25 13 53 13 60 0 8 6 14 14 14 7 0 13 2 13 4 0 2 3 13 6 23 4 14 4 15 -4
4 -5 -7 -15 -10 -21 -7 -14 9 -14 26 -1 26 17 0 74 70 87 105 15 44 3 99 -23
103 -17 2 -23 17 -37 90 -16 88 -36 247 -35 292 0 14 -3 37 -7 51 -8 31 5 38
79 45 27 3 56 9 65 14 22 13 42 8 55 -13z m-369 -223 c9 -14 14 -28 11 -31 -8
-9 -46 27 -46 44 0 21 16 15 35 -13z m-65 -144 c0 -5 -4 -10 -10 -10 -5 0 -10
5 -10 10 0 6 5 10 10 10 6 0 10 -4 10 -10z m-20 -50 c0 -5 -7 -10 -16 -10 -8
0 -12 5 -9 10 3 6 10 10 16 10 5 0 9 -4 9 -10z m-15 -109 c3 -5 1 -12 -5 -16
-5 -3 -10 1 -10 9 0 18 6 21 15 7z m-15 -98 c-11 -17 -11 -17 -6 0 3 10 6 24
7 30 0 9 2 9 5 0 3 -7 0 -20 -6 -30z m612 5 c-9 -9 -15 -9 -24 0 -9 9 -7 12
12 12 19 0 21 -3 12 -12z m-796 -117 c-9 -10 -16 -27 -16 -39 0 -12 -4 -22
-10 -22 -11 0 -2 59 13 77 5 7 14 10 19 7 5 -3 3 -13 -6 -23z m664 -1 c0 -5
-4 -10 -9 -10 -6 0 -13 5 -16 10 -3 6 1 10 9 10 9 0 16 -4 16 -10z m-594 -147
c17 -41 11 -48 -44 -49 -46 -1 -52 2 -52 19 0 11 3 18 6 15 3 -4 14 2 25 13
24 24 54 25 65 2z m279 -21 c-11 -3 -23 -9 -27 -15 -4 -6 -10 -8 -14 -4 -11
11 28 36 46 29 12 -5 11 -7 -5 -10z m-65 -28 c0 -13 -27 -30 -64 -41 -45 -14
-57 -10 -35 12 18 18 99 42 99 29z m-144 -107 c12 -15 27 -27 33 -27 6 0 11
-5 11 -12 0 -6 8 -4 19 6 17 16 18 16 14 -8 -5 -22 -8 -24 -30 -15 -13 5 -38
9 -55 9 -22 0 -29 4 -25 14 5 11 0 13 -22 6 -16 -4 -37 -13 -48 -19 -26 -13
-33 -5 -26 30 4 22 2 29 -10 29 -15 0 -32 28 -22 38 2 3 33 8 67 11 58 6 63 4
68 -15 3 -11 15 -32 26 -47z m174 63 c0 -5 -7 -10 -16 -10 -8 0 -12 5 -9 10 3
6 10 10 16 10 5 0 9 -4 9 -10z m1770 -319 c0 -20 -13 -41 -26 -41 -7 0 -20
-10 -28 -22 -13 -19 -16 -20 -16 -5 0 10 7 20 15 23 8 4 15 12 15 18 0 14 20
36 32 36 4 0 8 -4 8 -9z m-120 -355 c0 -3 -4 -8 -10 -11 -5 -3 -10 -1 -10 4 0
6 5 11 10 11 6 0 10 -2 10 -4z m-23 -62 c-3 -3 -12 -4 -19 -1 -8 3 -5 6 6 6
11 1 17 -2 13 -5z m-2232 -104 c-3 -5 -12 -10 -18 -10 -7 0 -6 4 3 10 19 12
23 12 15 0z m2276 -30 c32 -26 5 -26 -28 0 -17 13 -21 20 -10 20 8 0 25 -9 38
-20z m-32 -222 c1 -20 7 -39 14 -41 9 -4 9 -6 -1 -6 -15 -1 -19 9 -26 74 -4
34 -3 44 3 30 5 -11 10 -36 10 -57z m-4725 -33 c-4 -8 -11 -15 -16 -15 -6 0
-5 6 2 15 7 8 14 15 16 15 2 0 1 -7 -2 -15z m-24 -40 c0 -8 -7 -15 -15 -15
-16 0 -20 12 -8 23 11 12 23 8 23 -8z m44 0 c-4 -8 -8 -15 -10 -15 -2 0 -4 7
-4 15 0 8 4 15 10 15 5 0 7 -7 4 -15z m-152 -77 c-7 -7 -12 -8 -12 -2 0 14 12
26 19 19 2 -3 -1 -11 -7 -17z m108 -9 c0 -10 -4 -19 -10 -19 -5 0 -10 12 -10
26 0 14 4 23 10 19 6 -3 10 -15 10 -26z m-65 -18 c-3 -6 -11 -11 -17 -11 -6 0
-6 6 2 15 14 17 26 13 15 -4z m-941 -37 c4 -9 4 -19 2 -21 -8 -8 -26 8 -26 23
0 19 16 18 24 -2z m999 -26 c3 -21 2 -38 -4 -38 -5 0 -9 19 -9 42 0 49 5 47
13 -4z m-173 17 c0 -8 -4 -15 -10 -15 -5 0 -7 7 -4 15 4 8 8 15 10 15 2 0 4
-7 4 -15z m2080 -9 c0 -3 -4 -8 -10 -11 -5 -3 -10 -1 -10 4 0 6 5 11 10 11 6
0 10 -2 10 -4z m-2950 -13 c0 -5 -4 -15 -10 -23 -11 -18 -25 -7 -17 15 6 15
27 21 27 8z m976 -10 c-8 -8 -86 -10 -86 -3 0 13 10 16 50 12 23 -2 39 -6 36
-9z m1933 13 c-2 -3 -24 -11 -49 -20 -33 -11 -47 -12 -55 -4 -7 7 -7 9 1 5 6
-3 28 0 50 8 39 14 61 19 53 11z m-2840 -27 c8 12 12 12 25 -1 14 -15 11 -16
-30 -20 -53 -4 -57 -2 -42 25 10 20 11 20 25 1 11 -16 15 -16 22 -5z m755 -3
c-3 -9 -10 -16 -15 -16 -5 0 -4 9 3 20 14 22 21 20 12 -4z m1911 -19 c-22 -14
-115 -40 -122 -34 -2 2 18 10 44 17 26 7 52 17 58 21 5 5 16 9 24 9 12 0 10
-3 -4 -13z m-127 -60 c9 -2 -1 -4 -23 -4 -22 0 -65 -3 -95 -5 -36 -4 -42 -3
-15 1 29 5 35 8 20 12 -11 4 -4 4 15 2 21 -2 43 2 55 11 17 12 21 12 23 1 2
-8 11 -16 20 -18z m139 -4 c-2 -1 -27 0 -57 4 -35 4 -48 9 -35 13 16 6 99 -9
92 -17z m-2752 7 c3 -5 -1 -10 -10 -10 -9 0 -13 5 -10 10 3 6 8 10 10 10 2 0
7 -4 10 -10z m812 -6 c-3 -3 -12 -4 -19 -1 -8 3 -5 6 6 6 11 1 17 -2 13 -5z
m-63 -38 c6 -26 5 -27 -8 -13 -9 9 -13 23 -10 32 8 19 9 18 18 -19z m1546 19
c-14 -8 -36 -14 -50 -14 -24 0 -24 0 5 14 17 7 39 14 50 14 18 0 17 -1 -5 -14z
m505 4 c11 -16 1 -19 -13 -3 -7 8 -8 14 -3 14 5 0 13 -5 16 -11z m-1760 -9 c3
-5 -1 -10 -10 -10 -9 0 -13 5 -10 10 3 6 8 10 10 10 2 0 7 -4 10 -10z m107 -4
c10 0 14 -4 9 -9 -8 -8 -61 8 -61 19 0 3 8 3 18 -1 9 -5 25 -8 34 -9z m1041
-3 c-7 -2 -21 -2 -30 0 -10 3 -4 5 12 5 17 0 24 -2 18 -5z m-910 -10 c-7 -2
-21 -2 -30 0 -10 3 -4 5 12 5 17 0 24 -2 18 -5z m132 -3 c17 -6 15 -9 -16 -15
-20 -4 -47 -5 -60 -2 -15 3 -7 5 21 7 l45 3 -50 7 -50 7 45 1 c25 0 54 -3 65
-8z m704 6 c-2 -2 -33 -6 -69 -9 -42 -4 -58 -3 -45 3 19 8 123 14 114 6z
m-1272 -38 c-3 -7 -5 -2 -5 12 0 14 2 19 5 13 2 -7 2 -19 0 -25z m751 25 c-10
-2 -28 -2 -40 0 -13 2 -5 4 17 4 22 1 32 -1 23 -4z m87 -3 c4 -6 -5 -10 -19
-10 -14 0 -26 5 -26 10 0 6 9 10 19 10 11 0 23 -4 26 -10z m275 0 c0 -5 -12
-10 -26 -10 -14 0 -23 4 -19 10 3 6 15 10 26 10 10 0 19 -4 19 -10z m-879 -23
c-10 -9 -11 -8 -5 6 3 10 9 15 12 12 3 -3 0 -11 -7 -18z m808 19 c-2 -2 -38
-6 -79 -9 -46 -3 -62 -2 -40 3 36 8 126 13 119 6z m666 -19 c27 -4 27 -5 -4
-3 -21 0 -36 7 -38 16 -3 10 -2 11 4 3 4 -6 22 -13 38 -16z m132 1 c-3 -8 -6
-5 -6 6 -1 11 2 17 5 13 3 -3 4 -12 1 -19z m-1747 -20 c0 -5 -4 -8 -10 -8 -5
0 -10 10 -10 23 0 18 2 19 10 7 5 -8 10 -18 10 -22z m619 28 c-10 -9 -79 -14
-79 -5 0 5 19 9 42 9 23 0 39 -2 37 -4z m530 0 c-2 -2 -20 -6 -39 -10 -25 -4
-31 -3 -20 4 14 9 69 15 59 6z m-1087 -33 c-3 -16 -7 -22 -10 -15 -4 13 4 42
11 42 2 0 2 -12 -1 -27z m386 20 c-10 -2 -26 -2 -35 0 -10 3 -2 5 17 5 19 0
27 -2 18 -5z m912 -2 c0 -6 -4 -13 -10 -16 -5 -3 -10 1 -10 9 0 9 5 16 10 16
6 0 10 -4 10 -9z m470 5 c0 -2 -11 -11 -25 -20 -14 -9 -25 -13 -25 -8 0 5 10
14 23 20 27 13 27 13 27 8z m-1485 -35 c-3 -12 -15 -21 -25 -21 -18 0 -18 2 3
23 26 27 31 26 22 -2z m275 19 c0 -5 -2 -10 -4 -10 -3 0 -8 5 -11 10 -3 6 -1
10 4 10 6 0 11 -4 11 -10z m60 -5 c0 -8 -4 -15 -10 -15 -5 0 -10 7 -10 15 0 8
5 15 10 15 6 0 10 -7 10 -15z m390 -1 c0 -8 -4 -12 -10 -9 -5 3 -10 10 -10 16
0 5 5 9 10 9 6 0 10 -7 10 -16z m350 6 c0 -5 -2 -10 -4 -10 -3 0 -8 5 -11 10
-3 6 -1 10 4 10 6 0 11 -4 11 -10z m80 0 c0 -5 -2 -10 -4 -10 -3 0 -8 5 -11
10 -3 6 -1 10 4 10 6 0 11 -4 11 -10z m-1087 -17 c-7 -2 -19 -2 -25 0 -7 3 -2
5 12 5 14 0 19 -2 13 -5z m213 -38 c-3 -8 -10 -15 -15 -15 -5 0 -4 11 2 25 12
25 23 16 13 -10z m634 25 c0 -5 -9 -10 -20 -10 -11 0 -20 5 -20 10 0 6 9 10
20 10 11 0 20 -4 20 -10z m-1538 -22 c-7 -7 -12 -8 -12 -2 0 14 12 26 19 19 2
-3 -1 -11 -7 -17z m1058 12 c0 -5 -2 -10 -4 -10 -3 0 -8 5 -11 10 -3 6 -1 10
4 10 6 0 11 -4 11 -10z m-640 -15 c0 -8 -7 -15 -15 -15 -16 0 -20 12 -8 23 11
12 23 8 23 -8z m1250 0 c0 -8 -4 -15 -10 -15 -5 0 -10 7 -10 15 0 8 5 15 10
15 6 0 10 -7 10 -15z m-925 -5 c3 -5 -3 -10 -14 -10 -11 0 -23 5 -26 10 -3 6
3 10 14 10 11 0 23 -4 26 -10z m220 0 c3 -5 1 -10 -4 -10 -6 0 -11 5 -11 10 0
6 2 10 4 10 3 0 8 -4 11 -10z m632 -7 c3 -7 -4 -9 -16 -6 -12 3 -18 9 -15 15
7 11 26 6 31 -9z m-1027 -3 c-8 -5 -22 -10 -30 -10 -13 0 -13 1 0 10 8 5 22
10 30 10 13 0 13 -1 0 -10z m-590 -29 c-6 -12 -15 -21 -21 -21 -5 0 -2 11 7
25 20 30 31 26 14 -4z m1480 19 c0 -5 -4 -10 -9 -10 -6 0 -13 5 -16 10 -3 6 1
10 9 10 9 0 16 -4 16 -10z m430 0 c0 -5 -2 -10 -4 -10 -3 0 -8 5 -11 10 -3 6
-1 10 4 10 6 0 11 -4 11 -10z m70 -1 c0 -5 4 -8 9 -4 5 3 13 0 16 -6 11 -17
-2 -21 -24 -7 -22 14 -28 28 -11 28 6 0 10 -5 10 -11z m-1213 -31 c-3 -7 -5
-2 -5 12 0 14 2 19 5 13 2 -7 2 -19 0 -25z m83 -18 c0 -14 -7 -20 -21 -20 -11
0 -17 5 -14 10 4 6 11 8 16 5 5 -4 9 1 9 9 0 9 2 16 5 16 3 0 5 -9 5 -20z
m660 10 c0 -5 -2 -10 -4 -10 -3 0 -8 5 -11 10 -3 6 -1 10 4 10 6 0 11 -4 11
-10z m-1463 -23 c-3 -8 -17 -14 -31 -14 -33 0 -33 3 2 21 30 16 37 14 29 -7z
m1433 3 c0 -5 -7 -10 -16 -10 -8 0 -12 5 -9 10 3 6 10 10 16 10 5 0 9 -4 9
-10z m430 0 c0 -5 -5 -10 -11 -10 -5 0 -7 5 -4 10 3 6 8 10 11 10 2 0 4 -4 4
-10z m-917 -7 c-7 -2 -19 -2 -25 0 -7 3 -2 5 12 5 14 0 19 -2 13 -5z m347 -18
c0 -8 -4 -15 -10 -15 -5 0 -10 7 -10 15 0 8 5 15 10 15 6 0 10 -7 10 -15z
m220 5 c0 -5 -2 -10 -4 -10 -3 0 -8 5 -11 10 -3 6 -1 10 4 10 6 0 11 -4 11
-10z m361 -8 c-5 -10 -17 -25 -26 -32 -13 -11 -14 -10 -8 6 6 16 31 43 41 44
1 0 -2 -8 -7 -18z m-1881 -22 c0 -13 -30 -13 -50 0 -11 7 -7 10 18 10 17 0 32
-4 32 -10z m1024 0 c-6 -6 -21 -6 -39 -1 -30 9 -30 9 10 10 25 1 36 -2 29 -9z
m-1142 -22 c-7 -7 -12 -8 -12 -2 0 14 12 26 19 19 2 -3 -1 -11 -7 -17z m1698
12 c0 -5 -7 -10 -15 -10 -8 0 -15 5 -15 10 0 6 7 10 15 10 8 0 15 -4 15 -10z
m120 6 c0 -3 -4 -8 -10 -11 -5 -3 -10 -1 -10 4 0 6 5 11 10 11 6 0 10 -2 10
-4z m-1783 -28 c-3 -8 -6 -5 -6 6 -1 11 2 17 5 13 3 -3 4 -12 1 -19z m76 -5
c-7 -2 -19 -2 -25 0 -7 3 -2 5 12 5 14 0 19 -2 13 -5z m1043 -21 c1 -17 1 -18
-3 -3 -2 11 -14 22 -26 25 -18 3 -18 4 3 3 18 -2 25 -8 26 -25z m277 21 c-7
-2 -19 -2 -25 0 -7 3 -2 5 12 5 14 0 19 -2 13 -5z m566 4 c-2 -1 -13 -9 -24
-17 -19 -14 -19 -14 -6 3 7 9 18 17 24 17 6 0 8 -1 6 -3z m-359 -39 c0 -23 -3
-29 -11 -21 -6 6 -8 20 -4 32 9 30 15 26 15 -11z m140 22 c0 -5 -4 -10 -9 -10
-6 0 -13 5 -16 10 -3 6 1 10 9 10 9 0 16 -4 16 -10z m137 4 c-3 -3 -12 -4 -19
-1 -8 3 -5 6 6 6 11 1 17 -2 13 -5z m-1957 -23 c0 -5 -9 -19 -21 -32 l-20 -24
17 33 c19 33 24 38 24 23z m203 2 c-7 -2 -21 -2 -30 0 -10 3 -4 5 12 5 17 0
24 -2 18 -5z m657 -13 c0 -11 -4 -20 -10 -20 -5 0 -10 9 -10 20 0 11 5 20 10
20 6 0 10 -9 10 -20z m1080 -11 c0 -5 -4 -9 -10 -9 -5 0 -10 7 -10 16 0 8 5
12 10 9 6 -3 10 -10 10 -16z m-1596 3 c2 -4 -2 -18 -10 -32 l-13 -25 -1 33 c0
29 12 43 24 24z m1630 -7 c-4 -8 -10 -12 -15 -9 -11 6 -2 24 11 24 5 0 7 -7 4
-15z m-1444 -5 c0 -5 -4 -10 -10 -10 -5 0 -10 5 -10 10 0 6 5 10 10 10 6 0 10
-4 10 -10z m167 -12 c-3 -8 -6 -5 -6 6 -1 11 2 17 5 13 3 -3 4 -12 1 -19z
m1070 -3 c2 -11 0 -14 -3 -7 -3 6 -14 12 -25 12 -10 0 -19 5 -19 11 0 20 45 5
47 -16z m-1732 5 c3 -5 1 -10 -4 -10 -6 0 -11 5 -11 10 0 6 2 10 4 10 3 0 8
-4 11 -10z m75 -13 c22 -4 21 -5 -4 -4 -17 1 -31 9 -33 17 -3 10 -2 11 4 4 4
-7 19 -14 33 -17z m970 13 c0 -5 -5 -10 -11 -10 -5 0 -7 5 -4 10 3 6 8 10 11
10 2 0 4 -4 4 -10z m215 0 c3 -5 1 -10 -4 -10 -6 0 -11 5 -11 10 0 6 2 10 4
10 3 0 8 -4 11 -10z m-1298 -47 c-3 -10 -5 -2 -5 17 0 19 2 27 5 18 2 -10 2
-26 0 -35z m406 32 c-3 -9 -8 -14 -10 -11 -3 3 -2 9 2 15 9 16 15 13 8 -4z
m530 8 c-7 -2 -19 -2 -25 0 -7 3 -2 5 12 5 14 0 19 -2 13 -5z m434 -60 c-2
-16 -4 -5 -4 22 0 28 2 40 4 28 2 -13 2 -35 0 -50z m480 37 c1 -21 1 -21 -3
-3 -3 12 -13 24 -22 27 -12 3 -11 4 3 3 14 -2 21 -10 22 -27z m-1790 -42 c-2
-13 -4 -3 -4 22 0 25 2 35 4 23 2 -13 2 -33 0 -45z m523 58 c0 -3 -4 -8 -10
-11 -5 -3 -10 -1 -10 4 0 6 5 11 10 11 6 0 10 -2 10 -4z m160 0 c0 -3 -4 -8
-10 -11 -5 -3 -10 -1 -10 4 0 6 5 11 10 11 6 0 10 -2 10 -4z m965 -6 c-3 -5
-10 -10 -16 -10 -5 0 -9 5 -9 10 0 6 7 10 16 10 8 0 12 -4 9 -10z m235 -15 c0
-8 -4 -16 -9 -19 -5 -3 -8 5 -7 18 1 25 16 26 16 1z m-1980 -4 c0 -5 -11 -16
-25 -25 -31 -20 -32 -14 -3 14 24 22 28 24 28 11z m253 2 c7 -6 -38 -53 -51
-53 -4 0 -8 8 -8 19 0 11 5 17 13 14 7 -3 16 2 19 11 6 17 16 20 27 9z m947
-8 c0 -8 -4 -15 -10 -15 -5 0 -10 7 -10 15 0 8 5 15 10 15 6 0 10 -7 10 -15z
m-1060 -10 c-6 -8 -9 -19 -5 -25 3 -5 1 -10 -4 -10 -6 0 -11 11 -11 25 0 16 6
25 16 25 13 0 14 -3 4 -15z m1160 -15 c0 -5 -2 -10 -4 -10 -3 0 -8 5 -11 10
-3 6 -1 10 4 10 6 0 11 -4 11 -10z m-890 -10 c0 -5 -4 -10 -10 -10 -5 0 -10 5
-10 10 0 6 5 10 10 10 6 0 10 -4 10 -10z m100 -25 c-12 -15 -30 -12 -30 6 0 5
10 9 21 9 18 0 19 -2 9 -15z m83 8 c-7 -2 -19 -2 -25 0 -7 3 -2 5 12 5 14 0
19 -2 13 -5z m52 -4 c10 -15 -1 -23 -20 -15 -9 3 -13 10 -10 16 8 13 22 13 30
-1z m660 1 c-3 -5 -13 -10 -21 -10 -8 0 -14 5 -14 10 0 6 9 10 21 10 11 0 17
-4 14 -10z m65 0 c0 -5 -2 -10 -4 -10 -3 0 -8 5 -11 10 -3 6 -1 10 4 10 6 0
11 -4 11 -10z m-1413 -22 c-3 -8 -6 -5 -6 6 -1 11 2 17 5 13 3 -3 4 -12 1 -19z
m1123 2 c0 -5 -4 -10 -10 -10 -5 0 -10 5 -10 10 0 6 5 10 10 10 6 0 10 -4 10
-10z m810 0 c0 -5 -4 -10 -10 -10 -5 0 -10 5 -10 10 0 6 5 10 10 10 6 0 10 -4
10 -10z m-1946 -32 c6 -4 7 -10 3 -15 -10 -9 -27 16 -26 37 1 13 1 13 6 0 3
-8 11 -18 17 -22z m1531 -15 c-21 -49 -25 -52 -25 -17 0 17 5 35 12 42 23 23
28 12 13 -25z m-875 7 c0 -5 -4 -10 -10 -10 -5 0 -10 5 -10 10 0 6 5 10 10 10
6 0 10 -4 10 -10z m105 0 c3 -5 -1 -10 -9 -10 -9 0 -16 5 -16 10 0 6 4 10 9
10 6 0 13 -4 16 -10z m439 -5 c16 -12 17 -15 4 -15 -26 0 -48 11 -42 21 7 12
16 11 38 -6z m111 5 c3 -5 1 -10 -4 -10 -6 0 -11 5 -11 10 0 6 2 10 4 10 3 0
8 -4 11 -10z m305 0 c0 -5 -5 -10 -11 -10 -5 0 -7 5 -4 10 3 6 8 10 11 10 2 0
4 -4 4 -10z m-1437 -20 c-6 -23 -19 -26 -26 -6 -4 9 1 17 11 19 9 3 18 5 19 6
0 0 -1 -8 -4 -19z m163 -3 c1 -11 0 -12 -3 -3 -2 9 -21 17 -44 19 l-39 4 42
-1 c33 -1 43 -5 44 -19z m1551 -7 c-13 -21 -27 -26 -27 -10 0 6 5 10 10 10 6
0 10 7 10 16 0 8 4 12 10 9 6 -4 5 -13 -3 -25z m44 7 c-10 -9 -11 -8 -5 6 3
10 9 15 12 12 3 -3 0 -11 -7 -18z m-884 7 c-3 -3 -12 -4 -19 -1 -8 3 -5 6 6 6
11 1 17 -2 13 -5z m786 -1 c-7 -2 -19 -2 -25 0 -7 3 -2 5 12 5 14 0 19 -2 13
-5z m-908 -33 c0 -12 -14 -15 -60 -16 -39 -1 -45 0 -17 3 29 3 42 9 42 19 0 9
7 14 18 12 9 -2 17 -10 17 -18z m240 -9 c-8 -7 -56 10 -50 18 3 5 16 4 29 -2
14 -7 23 -14 21 -16z m490 19 c-3 -5 -11 -10 -16 -10 -6 0 -7 5 -4 10 3 6 11
10 16 10 6 0 7 -4 4 -10z m-196 -33 c0 -21 -1 -21 -9 -2 -12 28 -12 37 0 30 6
-3 10 -16 9 -28z m-724 -16 c-7 -33 -19 -40 -29 -16 -3 9 0 15 9 15 9 0 15 9
15 22 0 12 3 19 6 15 3 -3 3 -19 -1 -36z m335 35 c0 -3 -4 -8 -10 -11 -5 -3
-10 -1 -10 4 0 6 5 11 10 11 6 0 10 -2 10 -4z m745 -6 c3 -6 -4 -10 -17 -10
-18 0 -20 2 -8 10 19 12 18 12 25 0z m-1425 -15 c0 -8 -4 -15 -10 -15 -5 0
-10 7 -10 15 0 8 5 15 10 15 6 0 10 -7 10 -15z m260 -15 c0 -6 -22 -9 -50 -8
-27 1 -44 6 -37 10 18 11 87 10 87 -2z m397 4 c-3 -3 -12 -4 -19 -1 -8 3 -5 6
6 6 11 1 17 -2 13 -5z m630 0 c-3 -3 -12 -4 -19 -1 -8 3 -5 6 6 6 11 1 17 -2
13 -5z m86 -1 c-7 -2 -21 -2 -30 0 -10 3 -4 5 12 5 17 0 24 -2 18 -5z m-1872
-56 c-25 -39 -27 -30 -4 18 10 20 19 32 21 26 2 -6 -6 -26 -17 -44z m439 43
c0 -5 -4 -10 -10 -10 -5 0 -10 5 -10 10 0 6 5 10 10 10 6 0 10 -4 10 -10z
m160 0 c0 -5 -2 -10 -4 -10 -3 0 -8 5 -11 10 -3 6 -1 10 4 10 6 0 11 -4 11
-10z m345 0 c-3 -5 -10 -10 -16 -10 -5 0 -9 5 -9 10 0 6 7 10 16 10 8 0 12 -4
9 -10z m392 4 c-3 -3 -12 -4 -19 -1 -8 3 -5 6 6 6 11 1 17 -2 13 -5z m140 -56
c-2 -13 -4 -3 -4 22 0 25 2 35 4 23 2 -13 2 -33 0 -45z m464 30 c-4 -18 -11
-32 -16 -30 -15 5 -3 62 13 62 5 0 6 -15 3 -32z m-841 12 c0 -5 -4 -10 -10
-10 -5 0 -10 5 -10 10 0 6 5 10 10 10 6 0 10 -4 10 -10z m40 0 c0 -5 -4 -10
-10 -10 -5 0 -10 5 -10 10 0 6 5 10 10 10 6 0 10 -4 10 -10z m755 0 c3 -5 1
-10 -4 -10 -6 0 -11 5 -11 10 0 6 2 10 4 10 3 0 8 -4 11 -10z m-1363 -32 c-9
-9 -12 -7 -12 12 0 19 3 21 12 12 9 -9 9 -15 0 -24z m711 13 c3 -14 0 -17 -14
-14 -11 3 -19 12 -19 19 0 21 27 17 33 -5z m192 -11 c-5 -8 -11 -8 -17 -2 -6
6 -7 16 -3 22 5 8 11 8 17 2 6 -6 7 -16 3 -22z m-1178 14 c-3 -3 -12 -4 -19
-1 -8 3 -5 6 6 6 11 1 17 -2 13 -5z m103 -9 c0 -10 -10 -15 -32 -15 l-33 1 25
14 c32 18 40 18 40 0z m260 5 c0 -5 -4 -10 -10 -10 -5 0 -10 5 -10 10 0 6 5
10 10 10 6 0 10 -4 10 -10z m140 0 c0 -5 -12 -10 -27 -9 -25 0 -26 1 -8 9 27
12 35 12 35 0z m800 0 c0 -5 -9 -10 -20 -10 -11 0 -20 5 -20 10 0 6 9 10 20
10 11 0 20 -4 20 -10z m-662 -49 c-15 -6 -20 7 -12 31 l8 23 6 -25 c3 -14 2
-27 -2 -29z m-51 17 c-3 -8 -6 -5 -6 6 -1 11 2 17 5 13 3 -3 4 -12 1 -19z
m253 12 c0 -5 -4 -10 -10 -10 -5 0 -10 5 -10 10 0 6 5 10 10 10 6 0 10 -4 10
-10z m40 0 c0 -5 -4 -10 -10 -10 -5 0 -10 5 -10 10 0 6 5 10 10 10 6 0 10 -4
10 -10z m-1045 -10 c3 -5 -1 -10 -10 -10 -9 0 -13 5 -10 10 3 6 8 10 10 10 2
0 7 -4 10 -10z m562 -30 c13 0 23 -4 23 -10 0 -13 -13 -13 -47 2 -33 15 -54
33 -46 41 3 3 14 -3 26 -14 11 -10 31 -19 44 -19z m343 30 c0 -5 -7 -10 -16
-10 -8 0 -12 5 -9 10 3 6 10 10 16 10 5 0 9 -4 9 -10z m-757 -7 c-7 -2 -21 -2
-30 0 -10 3 -4 5 12 5 17 0 24 -2 18 -5z m870 -10 c-7 -2 -19 -2 -25 0 -7 3
-2 5 12 5 14 0 19 -2 13 -5z m127 -23 c0 -4 -7 -10 -15 -14 -11 -4 -15 2 -15
21 0 21 2 24 15 13 8 -7 15 -16 15 -20z m153 23 c-7 -2 -19 -2 -25 0 -7 3 -2
5 12 5 14 0 19 -2 13 -5z m227 -35 c0 -49 -5 -47 -13 5 -3 20 -2 37 4 37 5 0
9 -19 9 -42z m122 30 c-8 -8 -17 -8 -34 0 -22 10 -21 11 12 11 26 1 31 -2 22
-11z m-802 -18 c0 -5 -4 -10 -10 -10 -5 0 -10 5 -10 10 0 6 5 10 10 10 6 0 10
-4 10 -10z m547 -22 c-3 -7 -5 -2 -5 12 0 14 2 19 5 13 2 -7 2 -19 0 -25z m53
10 c0 -16 -3 -19 -11 -11 -6 6 -8 16 -5 22 11 17 16 13 16 -11z m-640 2 c0 -5
-13 -10 -30 -10 -16 0 -30 5 -30 10 0 6 14 10 30 10 17 0 30 -4 30 -10z m260
0 c0 -5 -9 -10 -20 -10 -11 0 -20 5 -20 10 0 6 9 10 20 10 11 0 20 -4 20 -10z
m200 0 c0 -5 -9 -10 -20 -10 -11 0 -20 5 -20 10 0 6 9 10 20 10 11 0 20 -4 20
-10z m498 -30 c-1 -26 -4 -36 -10 -28 -14 22 -8 68 9 68 1 0 2 -18 1 -40z
m-747 -4 c26 -5 29 -9 29 -46 0 -22 -4 -40 -10 -40 -5 0 -10 18 -10 40 0 36
-2 40 -25 40 -20 0 -25 5 -24 23 1 15 3 17 6 6 2 -9 17 -19 34 -23z m-566 4
c3 -5 -1 -10 -9 -10 -9 0 -16 5 -16 10 0 6 4 10 9 10 6 0 13 -4 16 -10z m60 0
c3 -5 -3 -10 -15 -10 -12 0 -18 5 -15 10 3 6 10 10 15 10 5 0 12 -4 15 -10z
m395 -10 c0 -13 -7 -20 -18 -20 -28 0 -34 11 -14 26 24 19 32 17 32 -6z m770
10 c0 -6 -7 -10 -15 -10 -7 0 -19 -8 -24 -17 -10 -17 -10 -17 -11 0 0 9 -8 17
-17 17 -29 0 2 15 36 17 17 1 31 -2 31 -7z m-863 -6 c-3 -3 -12 -4 -19 -1 -8
3 -5 6 6 6 11 1 17 -2 13 -5z m486 -1 c-7 -2 -19 -2 -25 0 -7 3 -2 5 12 5 14
0 19 -2 13 -5z m277 -7 c0 -2 -9 -6 -20 -9 -11 -3 -20 -1 -20 4 0 5 9 9 20 9
11 0 20 -2 20 -4z m170 -50 c0 -12 -14 5 -31 39 -8 16 -6 15 10 -4 12 -13 21
-28 21 -35z m-1893 12 c-3 -8 -6 -5 -6 6 -1 11 2 17 5 13 3 -3 4 -12 1 -19z
m1505 10 c-9 -9 -15 -9 -24 0 -9 9 -7 12 12 12 19 0 21 -3 12 -12z m58 -8 c0
-4 -7 -10 -15 -14 -10 -4 -15 1 -15 14 0 13 5 18 15 14 8 -4 15 -10 15 -14z
m293 3 c2 -10 8 -26 12 -36 6 -14 1 -12 -20 7 -15 14 -24 30 -20 35 9 16 22
13 28 -6z m-1276 -35 c-3 -7 -5 -2 -5 12 0 14 2 19 5 13 2 -7 2 -19 0 -25z
m49 -5 c-11 -11 -17 4 -9 23 7 18 8 18 11 1 2 -10 1 -21 -2 -24z m264 27 c0
-5 -7 -10 -15 -10 -8 0 -15 5 -15 10 0 6 7 10 15 10 8 0 15 -4 15 -10z m887
-15 c2 -11 0 -14 -3 -7 -3 6 -12 12 -20 12 -8 0 -14 5 -14 11 0 19 35 4 37
-16z m-1802 5 c3 -5 1 -10 -4 -10 -6 0 -11 5 -11 10 0 6 2 10 4 10 3 0 8 -4
11 -10z m282 -12 c-3 -8 -6 -5 -6 6 -1 11 2 17 5 13 3 -3 4 -12 1 -19z m998
-3 l40 -14 -42 -1 c-24 0 -43 -4 -43 -10 0 -5 -4 -10 -9 -10 -5 0 -4 11 2 25
7 14 12 25 12 25 0 0 18 -7 40 -15z m248 -2 c-7 -2 -19 -2 -25 0 -7 3 -2 5 12
5 14 0 19 -2 13 -5z m-993 -7 c0 -3 -4 -8 -10 -11 -5 -3 -10 -1 -10 4 0 6 5
11 10 11 6 0 10 -2 10 -4z m940 -5 c0 -5 -7 -11 -15 -15 -9 -3 -15 0 -15 9 0
8 7 15 15 15 8 0 15 -4 15 -9z m110 -1 c-19 -13 -30 -13 -30 0 0 6 10 10 23
10 18 0 19 -2 7 -10z m-415 -10 c3 -5 1 -10 -4 -10 -6 0 -11 5 -11 10 0 6 2
10 4 10 3 0 8 -4 11 -10z m200 0 c3 -5 -3 -10 -15 -10 -12 0 -18 5 -15 10 3 6
10 10 15 10 5 0 12 -4 15 -10z m305 2 c0 -13 -12 -22 -22 -16 -10 6 -1 24 13
24 5 0 9 -4 9 -8z m45 -13 c11 -16 1 -19 -13 -3 -7 8 -8 14 -3 14 5 0 13 -5
16 -11z m-1773 -21 c-7 -7 -12 -8 -12 -2 0 14 12 26 19 19 2 -3 -1 -11 -7 -17z
m1535 -10 c-3 -7 -5 -2 -5 12 0 14 2 19 5 13 2 -7 2 -19 0 -25z m56 26 c9 -9
-4 -35 -14 -28 -5 3 -9 12 -9 20 0 14 12 19 23 8z m-1096 -26 c-3 -8 -6 -5 -6
6 -1 11 2 17 5 13 3 -3 4 -12 1 -19z m137 1 c-3 -5 -10 -7 -15 -3 -5 3 -7 10
-3 15 3 5 10 7 15 3 5 -3 7 -10 3 -15z"/>
<path d="M2588 5403 c12 -2 32 -2 45 0 12 2 2 4 -23 4 -25 0 -35 -2 -22 -4z"/>
<path d="M6070 5644 c0 -3 22 -26 48 -52 55 -54 89 -132 99 -224 3 -32 12 -66
19 -76 11 -15 13 -15 19 11 19 74 -54 260 -124 318 -32 26 -61 38 -61 23z"/>
<path d="M6222 5065 c0 -16 2 -22 5 -12 2 9 2 23 0 30 -3 6 -5 -1 -5 -18z"/>
<path d="M5926 4532 c-4 -6 5 -12 21 -14 39 -4 42 -33 5 -52 -30 -16 -49 -61
-28 -70 7 -3 6 -8 -4 -15 -9 -6 -10 -11 -3 -11 6 0 18 7 27 15 8 8 23 15 34
15 22 0 52 39 52 68 0 41 -85 94 -104 64z"/>
<path d="M5886 4504 c-5 -14 -4 -15 9 -4 17 14 19 20 6 20 -5 0 -12 -7 -15
-16z"/>
<path d="M5870 4463 c0 -10 8 -27 17 -38 14 -18 15 -18 9 -2 -3 10 -6 27 -6
38 0 10 -4 19 -10 19 -5 0 -10 -8 -10 -17z"/>
<path d="M5518 1113 c7 -3 16 -2 19 1 4 3 -2 6 -13 5 -11 0 -14 -3 -6 -6z"/>
<path d="M5558 1103 c7 -3 16 -2 19 1 4 3 -2 6 -13 5 -11 0 -14 -3 -6 -6z"/>
<path d="M5460 1090 c-13 -9 -13 -10 0 -10 8 0 22 5 30 10 13 9 13 10 0 10 -8
0 -22 -5 -30 -10z"/>
<path d="M4978 1023 c7 -3 16 -2 19 1 4 3 -2 6 -13 5 -11 0 -14 -3 -6 -6z"/>
<path d="M4898 1013 c7 -3 16 -2 19 1 4 3 -2 6 -13 5 -11 0 -14 -3 -6 -6z"/>
<path d="M7790 2896 c0 -7 13 -16 28 -18 22 -3 28 0 29 14 1 14 -6 18 -28 18
-18 0 -29 -5 -29 -14z"/>
<path d="M7964 2895 c-10 -8 -29 -15 -41 -15 -13 0 -23 -4 -23 -10 0 -5 11
-10 25 -10 14 0 25 5 25 10 0 6 18 10 40 10 40 0 53 13 24 24 -23 9 -28 8 -50
-9z"/>
<path d="M8040 2865 c0 -8 7 -15 16 -15 14 0 14 3 4 15 -7 8 -14 15 -16 15 -2
0 -4 -7 -4 -15z"/>
<path d="M7757 2832 c-19 -21 -13 -32 15 -32 19 0 23 16 10 38 -7 10 -12 8
-25 -6z"/>
<path d="M7698 2803 c7 -3 16 -2 19 1 4 3 -2 6 -13 5 -11 0 -14 -3 -6 -6z"/>
<path d="M7606 2762 c-8 -13 -1 -130 8 -139 5 -4 5 2 2 14 -4 12 -1 31 5 42
10 16 10 23 -1 36 -12 15 -12 19 3 30 9 7 17 15 17 19 0 9 -28 8 -34 -2z"/>
<path d="M8170 2764 c0 -3 15 -11 33 -19 32 -13 83 -10 93 6 8 14 -25 23 -39
11 -8 -7 -18 -7 -27 -2 -16 10 -60 13 -60 4z"/>
<path d="M7506 2655 c-4 -10 1 -15 14 -15 13 0 18 5 14 15 -4 8 -10 15 -14 15
-4 0 -10 -7 -14 -15z"/>
<path d="M7530 2610 c0 -5 5 -10 11 -10 5 0 7 5 4 10 -3 6 -8 10 -11 10 -2 0
-4 -4 -4 -10z"/>
<path d="M7575 2600 c3 -5 12 -7 20 -3 21 7 19 13 -6 13 -11 0 -18 -4 -14 -10z"/>
<path d="M7350 2525 c0 -32 -4 -45 -14 -45 -8 0 -24 -12 -35 -26 -14 -18 -26
-24 -39 -20 -12 4 -22 1 -25 -8 -7 -18 1 -26 25 -26 10 0 18 -4 18 -8 0 -5 13
-7 30 -4 26 4 29 8 24 28 -5 18 -2 24 10 24 10 0 16 -8 16 -22 0 -21 1 -21 16
-6 9 9 16 29 15 45 -1 15 -2 41 -2 57 0 30 -14 56 -30 56 -5 0 -9 -20 -9 -45z"/>
<path d="M7210 2375 c0 -33 2 -36 15 -25 18 15 16 51 -2 58 -9 2 -13 -8 -13
-33z"/>
<path d="M7210 2230 c0 -5 4 -10 9 -10 6 0 13 5 16 10 3 6 -1 10 -9 10 -9 0
-16 -4 -16 -10z"/>
<path d="M7644 1735 c-4 -10 -16 -15 -33 -14 -30 2 -121 -20 -121 -30 0 -8 47
-28 87 -36 28 -6 38 -2 63 23 31 31 38 56 20 67 -6 3 -13 -1 -16 -10z"/>
<path d="M8235 1531 c-3 -5 -1 -12 5 -16 12 -7 30 2 30 16 0 12 -27 12 -35 0z"/>
<path d="M7947 1429 c-8 -28 22 -38 42 -13 9 11 25 18 36 17 l20 -3 -20 9
c-37 17 -72 13 -78 -10z"/>
<path d="M8235 1420 c-3 -5 -1 -10 4 -10 6 0 11 5 11 10 0 6 -2 10 -4 10 -3 0
-8 -4 -11 -10z"/>
<path d="M7437 3018 c-4 -15 -59 -18 -68 -4 -4 4 -9 3 -13 -2 -10 -17 29 -33
63 -26 21 5 31 12 31 25 0 22 -6 25 -13 7z"/>
<path d="M6660 2495 c0 -8 5 -15 10 -15 6 0 10 7 10 15 0 8 -4 15 -10 15 -5 0
-10 -7 -10 -15z"/>
<path d="M6650 2359 c0 -5 5 -7 10 -4 6 3 10 8 10 11 0 2 -4 4 -10 4 -5 0 -10
-5 -10 -11z"/>
<path d="M4500 8724 c49 -21 142 -84 163 -111 22 -27 34 -29 39 -6 3 15 4 15
19 0 16 -15 17 -15 24 6 4 12 6 32 5 45 -1 12 5 36 14 52 l14 30 -156 0 c-148
-1 -155 -2 -122 -16z"/>
<path d="M4900 8720 c8 -5 22 -10 30 -10 13 0 13 1 0 10 -8 5 -22 10 -30 10
-13 0 -13 -1 0 -10z"/>
<path d="M4484 8682 c1 -36 4 -42 20 -40 27 4 32 28 8 35 -12 3 -23 15 -25 27
-3 11 -4 2 -3 -22z"/>
<path d="M4795 8470 c3 -5 8 -10 11 -10 2 0 4 5 4 10 0 6 -5 10 -11 10 -5 0
-7 -4 -4 -10z"/>
<path d="M8558 2713 c7 -3 16 -2 19 1 4 3 -2 6 -13 5 -11 0 -14 -3 -6 -6z"/>
<path d="M8635 2660 c3 -5 8 -10 11 -10 2 0 4 5 4 10 0 6 -5 10 -11 10 -5 0
-7 -4 -4 -10z"/>
<path d="M8643 2563 c-15 -6 -17 -33 -3 -33 6 0 10 6 10 14 0 8 6 17 13 19 6
3 8 5 2 5 -5 0 -16 -2 -22 -5z"/>
<path d="M8685 1150 c-8 -13 3 -30 20 -30 20 0 30 21 14 31 -18 11 -26 11 -34
-1z"/>
</g>
</svg>
